HIERARCHY
ROOT Hips
{
  OFFSET 52.999 38.041 -273.864
  CHANNELS 6 Xposition Yposition Zposition Zrotation Xrotation Yrotation
  JOINT LeftUpLeg
  {
    OFFSET 7.184 -5.274 3.418
    CHANNELS 6 Xposition Yposition Zposition Zrotation Xrotation Yrotation
    JOINT LeftLeg
    {
      OFFSET -0.000 -53.542 0.000
      CHANNELS 6 Xposition Yposition Zposition Zrotation Xrotation Yrotation
      JOINT LeftFoot
      {
        OFFSET 0.000 -39.576 -0.000
        CHANNELS 6 Xposition Yposition Zposition Zrotation Xrotation Yrotation
        End Site
        {
          OFFSET 0.000 -7.778 4.491
        }
      }
    }
  }
  JOINT RightUpLeg
  {
    OFFSET -6.318 -5.789 3.948
    CHANNELS 6 Xposition Yposition Zposition Zrotation Xrotation Yrotation
    JOINT RightLeg
    {
      OFFSET -0.000 -47.818 0.000
      CHANNELS 6 Xposition Yposition Zposition Zrotation Xrotation Yrotation
      JOINT RightFoot
      {
        OFFSET 0.000 -44.415 -0.000
        CHANNELS 6 Xposition Yposition Zposition Zrotation Xrotation Yrotation
        End Site
        {
          OFFSET 0.000 -7.057 4.075
        }
      }
    }
  }
  JOINT Spine
  {
    OFFSET 0.000 5.593 -5.593
    CHANNELS 6 Xposition Yposition Zposition Zrotation Xrotation Yrotation
    JOINT LeftShoulder
    {
      OFFSET -0.000 25.762 0.000
      CHANNELS 6 Xposition Yposition Zposition Zrotation Xrotation Yrotation
      JOINT LeftArm
      {
        OFFSET 16.092 0.000 0.000
        CHANNELS 6 Xposition Yposition Zposition Zrotation Xrotation Yrotation
        JOINT LeftForeArm
        {
          OFFSET 24.375 0.000 0.000
          CHANNELS 6 Xposition Yposition Zposition Zrotation Xrotation Yrotation
          JOINT LeftHand
          {
            OFFSET 23.835 -0.000 -0.000
            CHANNELS 6 Xposition Yposition Zposition Zrotation Xrotation Yrotation
            JOINT LeftHandThumb1
            {
            OFFSET 4.970 -0.620 3.390
            CHANNELS 6 Xposition Yposition Zposition Zrotation Xrotation Yrotation
              JOINT LeftHandThumb2
              {
              OFFSET 2.150 -0.000 0.000
              CHANNELS 6 Xposition Yposition Zposition Zrotation Xrotation Yrotation
                JOINT LeftHandThumb3
                {
                OFFSET 2.200 -0.000 0.000
                CHANNELS 6 Xposition Yposition Zposition Zrotation Xrotation Yrotation
                  JOINT LeftHandThumb4
                  {
                  OFFSET 1.700 -0.000 0.000
                  CHANNELS 6 Xposition Yposition Zposition Zrotation Xrotation Yrotation
                  }
                }
              }
            }
            JOINT LeftHandIndex1
            {
            OFFSET 8.730 0.680 2.070
            CHANNELS 6 Xposition Yposition Zposition Zrotation Xrotation Yrotation
              JOINT LeftHandIndex2
              {
              OFFSET 2.670 -0.000 0.000
              CHANNELS 6 Xposition Yposition Zposition Zrotation Xrotation Yrotation
                JOINT LeftHandIndex3
                {
                OFFSET 2.130 -0.000 0.000
                CHANNELS 6 Xposition Yposition Zposition Zrotation Xrotation Yrotation
                  JOINT LeftHandIndex4
                  {
                  OFFSET 1.800 -0.000 0.000
                  CHANNELS 6 Xposition Yposition Zposition Zrotation Xrotation Yrotation
                  }
                }
              }
            }
            JOINT LeftHandMiddle1
            {
            OFFSET 9.220 0.670 0.550
            CHANNELS 6 Xposition Yposition Zposition Zrotation Xrotation Yrotation
              JOINT LeftHandMiddle2
              {
              OFFSET 2.660 -0.000 0.000
              CHANNELS 6 Xposition Yposition Zposition Zrotation Xrotation Yrotation
                JOINT LeftHandMiddle3
                {
                OFFSET 2.280 -0.000 0.000
                CHANNELS 6 Xposition Yposition Zposition Zrotation Xrotation Yrotation
                  JOINT LeftHandMiddle4
                  {
                  OFFSET 1.500 -0.000 0.000
                  CHANNELS 6 Xposition Yposition Zposition Zrotation Xrotation Yrotation
                  }
                }
              }
            }
            JOINT LeftHandRing1
            {
            OFFSET 9.250 0.670 -1.130
            CHANNELS 6 Xposition Yposition Zposition Zrotation Xrotation Yrotation
              JOINT LeftHandRing2
              {
              OFFSET 2.470 -0.000 0.000
              CHANNELS 6 Xposition Yposition Zposition Zrotation Xrotation Yrotation
                JOINT LeftHandRing3
                {
                OFFSET 2.210 -0.000 0.000
                CHANNELS 6 Xposition Yposition Zposition Zrotation Xrotation Yrotation
                  JOINT LeftHandRing4
                  {
                  OFFSET 1.800 -0.000 0.000
                  CHANNELS 6 Xposition Yposition Zposition Zrotation Xrotation Yrotation
                  }
                }
              }
            }
            JOINT LeftHandPinky1
            {
            OFFSET 9.350 0.660 -2.720
            CHANNELS 6 Xposition Yposition Zposition Zrotation Xrotation Yrotation
              JOINT LeftHandPinky2
              {
              OFFSET 1.630 -0.000 0.000
              CHANNELS 6 Xposition Yposition Zposition Zrotation Xrotation Yrotation
                JOINT LeftHandPinky3
                {
                OFFSET 1.710 -0.000 0.000
                CHANNELS 6 Xposition Yposition Zposition Zrotation Xrotation Yrotation
                  JOINT LeftHandPinky4
                  {
                  OFFSET 1.800 -0.000 0.000
                  CHANNELS 6 Xposition Yposition Zposition Zrotation Xrotation Yrotation
                  }
                }
              }
            }
          }
        }
      }
    }
    JOINT RightShoulder
    {
      OFFSET -0.000 25.762 0.000
      CHANNELS 6 Xposition Yposition Zposition Zrotation Xrotation Yrotation
      JOINT RightArm
      {
        OFFSET -17.460 -0.000 -0.000
        CHANNELS 6 Xposition Yposition Zposition Zrotation Xrotation Yrotation
        JOINT RightForeArm
        {
          OFFSET -23.670 0.000 0.000
          CHANNELS 6 Xposition Yposition Zposition Zrotation Xrotation Yrotation
          JOINT RightHand
          {
            OFFSET -23.026 0.000 -0.000
            CHANNELS 6 Xposition Yposition Zposition Zrotation Xrotation Yrotation
            JOINT RightHandThumb1
            {
            OFFSET -4.970 -0.620 3.390
            CHANNELS 6 Xposition Yposition Zposition Zrotation Xrotation Yrotation
              JOINT RightHandThumb2
              {
              OFFSET -2.150 0.000 0.000
              CHANNELS 6 Xposition Yposition Zposition Zrotation Xrotation Yrotation
                JOINT RightHandThumb3
                {
                OFFSET -2.200 0.000 0.000
                CHANNELS 6 Xposition Yposition Zposition Zrotation Xrotation Yrotation
                  JOINT RightHandThumb4
                  {
                  OFFSET -1.700 0.000 0.000
                  CHANNELS 6 Xposition Yposition Zposition Zrotation Xrotation Yrotation
                  }
                }
              }
            }
            JOINT RightHandIndex1
            {
            OFFSET -8.730 0.680 2.070
            CHANNELS 6 Xposition Yposition Zposition Zrotation Xrotation Yrotation
              JOINT RightHandIndex2
              {
              OFFSET -2.670 0.000 0.000
              CHANNELS 6 Xposition Yposition Zposition Zrotation Xrotation Yrotation
                JOINT RightHandIndex3
                {
                OFFSET -2.130 0.000 0.000
                CHANNELS 6 Xposition Yposition Zposition Zrotation Xrotation Yrotation
                  JOINT RightHandIndex4
                  {
                  OFFSET -1.800 0.000 0.000
                  CHANNELS 6 Xposition Yposition Zposition Zrotation Xrotation Yrotation
                  }
                }
              }
            }
            JOINT RightHandMiddle1
            {
            OFFSET -9.220 0.670 0.550
            CHANNELS 6 Xposition Yposition Zposition Zrotation Xrotation Yrotation
              JOINT RightHandMiddle2
              {
              OFFSET -2.660 0.000 0.000
              CHANNELS 6 Xposition Yposition Zposition Zrotation Xrotation Yrotation
                JOINT RightHandMiddle3
                {
                OFFSET -2.280 0.000 0.000
                CHANNELS 6 Xposition Yposition Zposition Zrotation Xrotation Yrotation
                  JOINT RightHandMiddle4
                  {
                  OFFSET -1.500 0.000 0.000
                  CHANNELS 6 Xposition Yposition Zposition Zrotation Xrotation Yrotation
                  }
                }
              }
            }
            JOINT RightHandRing1
            {
            OFFSET -9.250 0.670 -1.130
            CHANNELS 6 Xposition Yposition Zposition Zrotation Xrotation Yrotation
              JOINT RightHandRing2
              {
              OFFSET -2.470 0.000 0.000
              CHANNELS 6 Xposition Yposition Zposition Zrotation Xrotation Yrotation
                JOINT RightHandRing3
                {
                OFFSET -2.210 0.000 0.000
                CHANNELS 6 Xposition Yposition Zposition Zrotation Xrotation Yrotation
                  JOINT RightHandRing4
                  {
                  OFFSET -1.800 0.000 0.000
                  CHANNELS 6 Xposition Yposition Zposition Zrotation Xrotation Yrotation
                  }
                }
              }
            }
            JOINT RightHandPinky1
            {
            OFFSET -9.350 0.660 -2.720
            CHANNELS 6 Xposition Yposition Zposition Zrotation Xrotation Yrotation
              JOINT RightHandPinky2
              {
              OFFSET -1.630 0.000 0.000
              CHANNELS 6 Xposition Yposition Zposition Zrotation Xrotation Yrotation
                JOINT RightHandPinky3
                {
                OFFSET -1.710 0.000 0.000
                CHANNELS 6 Xposition Yposition Zposition Zrotation Xrotation Yrotation
                  JOINT RightHandPinky4
                  {
                  OFFSET -1.800 0.000 0.000
                  CHANNELS 6 Xposition Yposition Zposition Zrotation Xrotation Yrotation
                  }
                }
              }
            }
          }
        }
      }
    }
    JOINT Neck
    {
      OFFSET -0.000 25.762 0.000
      CHANNELS 6 Xposition Yposition Zposition Zrotation Xrotation Yrotation
      JOINT Head
      {
        OFFSET -0.000 30.681 -0.000
        CHANNELS 6 Xposition Yposition Zposition Zrotation Xrotation Yrotation
        End Site
        {
          OFFSET -0.000 0.123 -0.000
        }
      }
    }
  }
}
MOTION
Frames:	5
Frame Time:	0.0333333
76.0206 34.5312 -278.689 35.9758 6.07156 -77.6447 6.52449 -3.31332 3.38099 -25.3302 -57.8924 -21.8646 0 -53.8592 1.19209e-05 16.0272 19.7314 7.25624e-06 2.38419e-05 -42.4078 -2.38419e-05 -20.5006 -22.6824 -19.5758 -5.74849 -3.91597 4.17082 -13.3736 -18.3169 -4.62275 -2.38419e-05 -50.6233 -1.19209e-05 29.7979 12.5019 6.99607e-06 -2.38419e-05 -45.5682 0 -29.0447 10.7574 -12.3339 -2.38419e-05 6.0323 -6.03235 3.04913 -44.902 2.15649 -2.38419e-05 25.7619 1.19209e-05 -6.57303 9.53242e-06 -1.74313 13.8231 0 1.19209e-05 -75.9292 52.2212 9.97635 25.982 -2.38419e-05 2.38419e-05 8.25407e-05 -1.94545e-05 -107.901 26.5405 0 -5.96046e-06 -6.43755 0.00119102 -4.65851 0.0062 0.0497 0.0339 0 0 0 0 0.0215 0 0 0 0 0 0.022 0 0 0 0 0 0.017 0 0 0 0 -0.0068 0.0873 0.0207 0 0 0 0 0.0267 0 0 0 0 0 0.0213 0 0 0 0 0 0.018 0 0 0 0 -0.0067 0.0922 0.0055 0 0 0 0 0.0266 0 0 0 0 0 0.0228 0 0 0 0 0 0.015 0 0 0 0 -0.0067 0.0925 -0.0113 0 0 0 0 0.0247 0 0 0 0 0 0.0221 0 0 0 0 0 0.018 0 0 0 0 -0.0066 0.0935 -0.0272 0 0 0 0 0.0163 0 0 0 0 0 0.0171 0 0 0 0 0 0.018 0 0 0 0 -2.38419e-05 25.7619 1.19209e-05 9.00325 -2.28384e-05 1.87738 -12.8345 -1.19209e-05 -2.38419e-05 56.7606 49.0696 -9.45344 -26.1934 0 0 -1.43382e-05 3.35691e-06 112.831 -27.6702 -2.38419e-05 0 -105.575 0.00200099 -30.2829 -0.0062 0.0497 0.0339 45 0 0 0 0.0215 0 0 -45 0 0 0.022 0 0 -45 0 0 0.017 0 0 0 0 0.0068 0.0873 0.0207 45 0 0 0 0.0267 0 80 0 0 0 0.0213 0 90 0 0 0 0.018 0 0 0 0 0.0067 0.0922 0.0055 45 0 0 0 0.0266 0 80 0 0 0 0.0228 0 90 0 0 0 0.015 0 0 0 0 0.0067 0.0925 -0.0113 45 0 0 0 0.0247 0 80 0 0 0 0.0221 0 90 0 0 0 0.018 0 0 0 0 0.0066 0.0935 -0.0272 45 0 0 0 0.0163 0 80 0 0 0 0.0171 0 90 0 0 0 0.018 0 0 0 0 -2.38419e-05 25.7619 1.19209e-05 -3.41955 11.0217 0.654507 4.76837e-05 33.317 -2.38419e-05 1.00318e-05 -1.07922e-05 0 
76.0206 34.5312 -278.689 35.9758 6.07156 -77.6447 6.52449 -3.31332 3.38099 -25.3302 -57.8924 -21.8646 0 -53.8592 1.19209e-05 16.0272 19.7314 7.25624e-06 2.38419e-05 -42.4078 -2.38419e-05 -20.5006 -22.6824 -19.5758 -5.74849 -3.91597 4.17082 -13.3736 -18.3169 -4.62275 -2.38419e-05 -50.6233 -1.19209e-05 29.7979 12.5019 6.99607e-06 -2.38419e-05 -45.5682 0 -29.0447 10.7574 -12.3339 -2.38419e-05 6.0323 -6.03235 3.04913 -44.902 2.15649 -2.38419e-05 25.7619 1.19209e-05 -6.57303 9.53242e-06 -1.74313 13.8231 0 1.19209e-05 -75.9292 52.2212 9.97635 25.982 -2.38419e-05 2.38419e-05 8.25407e-05 -1.94545e-05 -107.901 26.5405 0 -5.96046e-06 -6.43755 0.00119102 -4.65851 0.0062 0.0497 0.0339 0 0 0 0 0.0215 0 0 0 0 0 0.022 0 0 0 0 0 0.017 0 0 0 0 -0.0068 0.0873 0.0207 0 0 0 0 0.0267 0 0 0 0 0 0.0213 0 0 0 0 0 0.018 0 0 0 0 -0.0067 0.0922 0.0055 0 0 0 0 0.0266 0 0 0 0 0 0.0228 0 0 0 0 0 0.015 0 0 0 0 -0.0067 0.0925 -0.0113 0 0 0 0 0.0247 0 0 0 0 0 0.0221 0 0 0 0 0 0.018 0 0 0 0 -0.0066 0.0935 -0.0272 0 0 0 0 0.0163 0 0 0 0 0 0.0171 0 0 0 0 0 0.018 0 0 0 0 -2.38419e-05 25.7619 1.19209e-05 9.00325 -2.28384e-05 1.87738 -12.8345 -1.19209e-05 -2.38419e-05 56.7606 49.0696 -9.45344 -26.1934 0 0 -1.43382e-05 3.35691e-06 112.831 -27.6702 -2.38419e-05 0 -105.575 0.00200099 -30.2829 -0.0062 0.0497 0.0339 45 0 0 0 0.0215 0 0 -45 0 0 0.022 0 0 -45 0 0 0.017 0 0 0 0 0.0068 0.0873 0.0207 45 0 0 0 0.0267 0 80 0 0 0 0.0213 0 90 0 0 0 0.018 0 0 0 0 0.0067 0.0922 0.0055 45 0 0 0 0.0266 0 80 0 0 0 0.0228 0 90 0 0 0 0.015 0 0 0 0 0.0067 0.0925 -0.0113 45 0 0 0 0.0247 0 80 0 0 0 0.0221 0 90 0 0 0 0.018 0 0 0 0 0.0066 0.0935 -0.0272 45 0 0 0 0.0163 0 80 0 0 0 0.0171 0 90 0 0 0 0.018 0 0 0 0 -2.38419e-05 25.7619 1.19209e-05 -3.41955 11.0217 0.654507 4.76837e-05 33.317 -2.38419e-05 1.00318e-05 -1.07922e-05 0 
76.0206 34.5312 -278.689 35.9758 6.07156 -77.6447 6.52449 -3.31332 3.38099 -25.3302 -57.8924 -21.8646 0 -53.8592 1.19209e-05 16.0272 19.7314 7.25624e-06 2.38419e-05 -42.4078 -2.38419e-05 -20.5006 -22.6824 -19.5758 -5.74849 -3.91597 4.17082 -13.3736 -18.3169 -4.62275 -2.38419e-05 -50.6233 -1.19209e-05 29.7979 12.5019 6.99607e-06 -2.38419e-05 -45.5682 0 -29.0447 10.7574 -12.3339 -2.38419e-05 6.0323 -6.03235 3.04913 -44.902 2.15649 -2.38419e-05 25.7619 1.19209e-05 -6.57303 9.53242e-06 -1.74313 13.8231 0 1.19209e-05 -75.9292 52.2212 9.97635 25.982 -2.38419e-05 2.38419e-05 8.25407e-05 -1.94545e-05 -107.901 26.5405 0 -5.96046e-06 -6.43755 0.00119102 -4.65851 0.0062 0.0497 0.0339 0 0 0 0 0.0215 0 0 0 0 0 0.022 0 0 0 0 0 0.017 0 0 0 0 -0.0068 0.0873 0.0207 0 0 0 0 0.0267 0 0 0 0 0 0.0213 0 0 0 0 0 0.018 0 0 0 0 -0.0067 0.0922 0.0055 0 0 0 0 0.0266 0 0 0 0 0 0.0228 0 0 0 0 0 0.015 0 0 0 0 -0.0067 0.0925 -0.0113 0 0 0 0 0.0247 0 0 0 0 0 0.0221 0 0 0 0 0 0.018 0 0 0 0 -0.0066 0.0935 -0.0272 0 0 0 0 0.0163 0 0 0 0 0 0.0171 0 0 0 0 0 0.018 0 0 0 0 -2.38419e-05 25.7619 1.19209e-05 9.00325 -2.28384e-05 1.87738 -12.8345 -1.19209e-05 -2.38419e-05 56.7606 49.0696 -9.45344 -26.1934 0 0 -1.43382e-05 3.35691e-06 112.831 -27.6702 -2.38419e-05 0 -105.575 0.00200099 -30.2829 -0.0062 0.0497 0.0339 45 0 0 0 0.0215 0 0 -45 0 0 0.022 0 0 -45 0 0 0.017 0 0 0 0 0.0068 0.0873 0.0207 45 0 0 0 0.0267 0 80 0 0 0 0.0213 0 90 0 0 0 0.018 0 0 0 0 0.0067 0.0922 0.0055 45 0 0 0 0.0266 0 80 0 0 0 0.0228 0 90 0 0 0 0.015 0 0 0 0 0.0067 0.0925 -0.0113 45 0 0 0 0.0247 0 80 0 0 0 0.0221 0 90 0 0 0 0.018 0 0 0 0 0.0066 0.0935 -0.0272 45 0 0 0 0.0163 0 80 0 0 0 0.0171 0 90 0 0 0 0.018 0 0 0 0 -2.38419e-05 25.7619 1.19209e-05 -3.41955 11.0217 0.654507 4.76837e-05 33.317 -2.38419e-05 1.00318e-05 -1.07922e-05 0 
76.0341 34.6045 -278.7 35.9604 6.14653 -77.6243 6.53408 -3.3545 3.44173 -25.4163 -57.8694 -22.0009 4.76837e-05 -53.9551 2.38419e-05 16.2282 19.8057 -9.07452e-07 4.76837e-05 -42.2398 1.19209e-05 -20.3572 -22.6416 -19.4194 -5.74489 -3.91631 4.19391 -13.2253 -18.2995 -4.77158 -2.38419e-05 -50.8586 -1.19209e-05 29.7483 12.5866 -8.74797e-07 4.76837e-05 -45.4066 2.38419e-05 -28.913 10.5753 -12.3726 0 6.00177 -6.00175 3.09068 -44.9254 2.18548 4.76837e-05 25.7619 -3.57628e-05 -6.65915 1.6862e-05 -1.73467 13.8123 -1.78814e-05 1.19209e-05 -75.8308 52.4224 10.0225 25.9217 0 -5.96046e-06 3.80618e-05 -1.90007e-05 -107.47 26.5363 2.38419e-05 1.78814e-05 -6.26136 0.00508754 -5.06502 0.0062 0.0497 0.0339 0 0 0 0 0.0215 0 0 0 0 0 0.022 0 0 0 0 0 0.017 0 0 0 0 -0.0068 0.0873 0.0207 0 0 0 0 0.0267 0 0 0 0 0 0.0213 0 0 0 0 0 0.018 0 0 0 0 -0.0067 0.0922 0.0055 0 0 0 0 0.0266 0 0 0 0 0 0.0228 0 0 0 0 0 0.015 0 0 0 0 -0.0067 0.0925 -0.0113 0 0 0 0 0.0247 0 0 0 0 0 0.0221 0 0 0 0 0 0.018 0 0 0 0 -0.0066 0.0935 -0.0272 0 0 0 0 0.0163 0 0 0 0 0 0.0171 0 0 0 0 0 0.018 0 0 0 0 4.76837e-05 25.7619 -3.57628e-05 9.14951 -8.75118e-06 1.86482 -12.8484 1.19209e-05 1.19209e-05 56.6798 49.0424 -9.52147 -26.1934 2.98023e-05 -7.15256e-05 9.74919e-06 1.93118e-05 112.898 -27.612 -5.96046e-06 -2.08616e-05 -105.655 0.00407073 -29.9034 -0.0062 0.0497 0.0339 45 0 0 0 0.0215 0 0 -45 0 0 0.022 0 0 -45 0 0 0.017 0 0 0 0 0.0068 0.0873 0.0207 45 0 0 0 0.0267 0 80 0 0 0 0.0213 0 90 0 0 0 0.018 0 0 0 0 0.0067 0.0922 0.0055 45 0 0 0 0.0266 0 80 0 0 0 0.0228 0 90 0 0 0 0.015 0 0 0 0 0.0067 0.0925 -0.0113 45 0 0 0 0.0247 0 80 0 0 0 0.0221 0 90 0 0 0 0.018 0 0 0 0 0.0066 0.0935 -0.0272 45 0 0 0 0.0163 0 80 0 0 0 0.0171 0 90 0 0 0 0.018 0 0 0 0 4.76837e-05 25.7619 -3.57628e-05 -3.37527 11.0368 0.646883 -2.38419e-05 33.2898 2.38419e-05 9.44487e-06 -1.00719e-05 0 
76.0497 34.6738 -278.7 35.8845 6.35976 -77.4865 6.48108 -3.44976 3.54704 -26.1808 -58.2243 -22.7618 -4.76837e-05 -52.0002 0 16.1923 19.9708 -2.7252e-06 4.76837e-05 -43.5835 2.38419e-05 -19.791 -21.8413 -18.6869 -5.70877 -3.91805 4.19917 -12.9496 -18.2041 -5.17833 2.38419e-05 -51.3093 -3.57628e-05 29.7593 12.7832 2.62642e-06 7.15256e-05 -45.0259 1.19209e-05 -28.7246 10.0563 -12.5807 2.38419e-05 5.95565 -5.9556 3.16344 -44.9483 2.23648 2.38419e-05 25.7619 -1.19209e-05 -6.56636 3.08405e-05 -1.61343 13.7789 1.78814e-05 -4.76837e-05 -75.9225 52.7765 9.92838 25.9377 0 -2.38419e-05 5.79101e-05 -2.51595e-06 -106.907 26.5407 7.15256e-05 4.76837e-05 -5.75188 0.00889584 -6.16116 0.0062 0.0497 0.0339 0 0 0 0 0.0215 0 0 0 0 0 0.022 0 0 0 0 0 0.017 0 0 0 0 -0.0068 0.0873 0.0207 0 0 0 0 0.0267 0 0 0 0 0 0.0213 0 0 0 0 0 0.018 0 0 0 0 -0.0067 0.0922 0.0055 0 0 0 0 0.0266 0 0 0 0 0 0.0228 0 0 0 0 0 0.015 0 0 0 0 -0.0067 0.0925 -0.0113 0 0 0 0 0.0247 0 0 0 0 0 0.0221 0 0 0 0 0 0.018 0 0 0 0 -0.0066 0.0935 -0.0272 0 0 0 0 0.0163 0 0 0 0 0 0.0171 0 0 0 0 0 0.018 0 0 0 0 2.38419e-05 25.7619 -1.19209e-05 9.17072 4.9092e-06 1.72701 -12.8725 0 -1.19209e-05 56.7861 49.0801 -9.64845 -26.1934 1.19209e-05 2.38419e-05 -1.54434e-05 8.73983e-06 113.061 -27.4066 -5.96046e-06 3.27826e-05 -104.859 -0.0309236 -28.8849 -0.0062 0.0497 0.0339 45 0 0 0 0.0215 0 0 -45 0 0 0.022 0 0 -45 0 0 0.017 0 0 0 0 0.0068 0.0873 0.0207 45 0 0 0 0.0267 0 80 0 0 0 0.0213 0 90 0 0 0 0.018 0 0 0 0 0.0067 0.0922 0.0055 45 0 0 0 0.0266 0 80 0 0 0 0.0228 0 90 0 0 0 0.015 0 0 0 0 0.0067 0.0925 -0.0113 45 0 0 0 0.0247 0 80 0 0 0 0.0221 0 90 0 0 0 0.018 0 0 0 0 0.0066 0.0935 -0.0272 45 0 0 0 0.0163 0 80 0 0 0 0.0171 0 90 0 0 0 0.018 0 0 0 0 2.38419e-05 25.7619 -1.19209e-05 -3.26282 11.054 0.626218 0 33.2902 1.19209e-05 1.00852e-05 -1.09256e-05 1.70755e-06 
